<svg xmlns="http://www.w3.org/2000/svg" aria-hidden="true" style="position:absolute;width:0;height:0;overflow:hidden"><defs><symbol id="icon-arrow" viewBox="0 0 32 32"><path fill="#fff" d="M16 1.863 1.562 11.488v6.648L16 8.511l14.437 9.625v-6.648zm0 8.003-9.437 6.37v5.643L16 15.509l9.437 6.37v-5.643zm0 7-5.437 3.67v4.225L16 21.136l5.437 3.625v-4.225zm0 5.622-5.437 3.625v4.023L16 26.511l5.437 3.625v-4.023z" style="fill:var(--color1, #fff)"/></symbol><symbol id="icon-close" viewBox="0 0 32 32"><path fill="#fff" d="m8.532 25.333-1.867-1.867 7.467-7.467-7.467-7.467 1.867-1.867 7.467 7.467 7.467-7.467 1.867 1.867-7.467 7.467 7.467 7.467-1.867 1.867-7.467-7.467z" style="fill:var(--color1, #fff)"/></symbol><symbol id="icon-layers" viewBox="0 0 32 32"><path fill="#fff" d="M16 1.148 3.134 8.5 16 15.852 28.866 8.5zm-9.625 10.5L3.134 13.5 16 20.852 28.866 13.5l-3.241-1.852-9.625 5.5zm0 5L3.134 18.5 16 25.852 28.866 18.5l-3.241-1.852-9.625 5.5zm0 5L3.134 23.5 16 30.852 28.866 23.5l-3.241-1.852-9.625 5.5z" style="fill:var(--color1, #fff)"/></symbol><symbol id="icon-menu" viewBox="0 0 32 32"><path fill="#fff" d="M4 24v-2.667h24V24zm0-6.667v-2.667h24v2.667zm0-6.666V8h24v2.667z" style="fill:var(--color1, #fff)"/></symbol><symbol id="icon-minus" viewBox="0 0 32 32"><path fill="#bba27a" d="M28 16a.997.997 0 0 1-1 1H5a.997.997 0 0 1-1-1 .997.997 0 0 1 1-1h22a.997.997 0 0 1 1 1" style="fill:var(--color2, #bba27a)"/></symbol><symbol id="icon-plus" viewBox="0 0 32 32"><path fill="#bba27a" d="M28 16a.997.997 0 0 1-1 1H17v10a.997.997 0 0 1-1 1 .997.997 0 0 1-1-1V17H5a.997.997 0 0 1-1-1 .997.997 0 0 1 1-1h10V5a.997.997 0 0 1 1-1 .997.997 0 0 1 1 1v10h10a.997.997 0 0 1 1 1" style="fill:var(--color2, #bba27a)"/></symbol><symbol id="icon-tower" viewBox="0 0 32 32"><path fill="#fff" d="M6.113 1.461v5.805l2.889 3.233v11.439H7.387l-1.475 8.807h19.996l-1.475-8.807h-1.617V10.499l2.889-3.233V1.461h-3.371v2.748h-2.053V1.461H16.91v2.748h-2.027V1.461h-3.371v2.748H9.485V1.461zm4.61 9.555h1.168v3.139h-1.168zm4.599 0h1.168v3.139h-1.168zm4.635 0h1.168v3.139h-1.168z" style="fill:var(--color1, #fff)"/></symbol><symbol id="icon-whirl" viewBox="0 0 32 32"><path fill="#fff" d="M1.24 1.074v3.839c.609 2.849 2.14 6.169 4.782 9.771a42 42 0 0 1-3.295-3.38c1.601 3.719 4.347 7.449 7.696 10.175 3.008 1.973 7.48 1.841 10.181-.663q.632-.748 1.186-1.605c-1.288 4.929-5.642 8.121-13.538 8.726 1.393.419 2.906.681 4.523.765-4.68 1.468-8.754 1.21-11.717-.236v2.426h21.536a23.5 23.5 0 0 0 1.845-5.306c.309-3.032-.268-6.902-2.032-11.436a41 41 0 0 1 2.71 4.97q.001-1.515-.14-3.124a8 8 0 0 0-.081-1.025c-2.103-3.312-5.091-4.475-8.326-4.008 3.717-1.072 6.613-.334 8.942 2.539 3.857 4.159 5.251 10.438 3.761 17.427h1.57V11.552c-1.986-1.79-4.624-2.974-7.921-3.254 2.019-.603 3.867-.871 5.512-.839q.447.009.875.046c-1.85-.513-3.758-.727-5.678-.712a26 26 0 0 0-2.335.126l.006.003c-2.981.655-5.749 2.426-7.921 5.543.384-1.618.897-3.039 1.514-4.259a8.16 8.16 0 0 0-4.607 3.056c-.772 3.316.609 7.169 3.52 7.891a3.13 3.13 0 0 1-1.74-2.796c0-1.716 1.404-3.12 3.12-3.12s3.12 1.404 3.12 3.12a3.12 3.12 0 0 1-1.399 2.599c-2.419 1.861-5.004 1.224-6.818-1.222-1.988-2.681-2.12-5.504-.551-9.14-.874 1.129-1.61 2.464-2.171 4.016-.171-5.98 1.957-9.865 5.151-11.534H1.24z" style="fill:var(--color1, #fff)"/></symbol></defs></svg>